HIERARCHY
ROOT Hips
{
  OFFSET 48.5708 102.244 -11.6609
  CHANNELS 6 Xposition Yposition Zposition Zrotation Xrotation Yrotation
  JOINT Chest
  {
    OFFSET 1.23234e-007 14.8421 1.27319e-009
    CHANNELS 6 Xposition Yposition Zposition Zrotation Xrotation Yrotation
    JOINT Neck
    {
      OFFSET 0.51659 29.8236 6.51843
      CHANNELS 6 Xposition Yposition Zposition Zrotation Xrotation Yrotation
      JOINT Head
      {
        OFFSET 1.16803e-007 7.47049 6.44171e-007
        CHANNELS 6 Xposition Yposition Zposition Zrotation Xrotation Yrotation
        End Site
        {
          OFFSET -4.32676e-008 16.2908 2.16786e-007
        }
      }
    }
    JOINT LeftCollar
    {
      OFFSET 6.64893 27.3161 3.27471
      CHANNELS 6 Xposition Yposition Zposition Zrotation Xrotation Yrotation
      JOINT LeftUpArm
      {
        OFFSET 10.8584 2.41798 -0.945791
        CHANNELS 6 Xposition Yposition Zposition Zrotation Xrotation Yrotation
        JOINT LeftLowArm
        {
          OFFSET 3.77631 -24.5904 -1.70468
          CHANNELS 6 Xposition Yposition Zposition Zrotation Xrotation Yrotation
          JOINT LeftHand
          {
            OFFSET 1.01026 -21.1231 1.74131
            CHANNELS 6 Xposition Yposition Zposition Zrotation Xrotation Yrotation
            End Site
            {
              OFFSET 1.17583e-006 -9.81266 -2.89439e-008
            }
          }
        }
      }
    }
    JOINT RightCollar
    {
      OFFSET -6.11406 27.2248 4.23427
      CHANNELS 6 Xposition Yposition Zposition Zrotation Xrotation Yrotation
      JOINT RightUpArm
      {
        OFFSET -10.4566 2.3285 -0.910794
        CHANNELS 6 Xposition Yposition Zposition Zrotation Xrotation Yrotation
        JOINT RightLowArm
        {
          OFFSET -3.86856 -25.191 -1.74633
          CHANNELS 6 Xposition Yposition Zposition Zrotation Xrotation Yrotation
          JOINT RightHand
          {
            OFFSET -1.04759 -20.6242 1.75213
            CHANNELS 6 Xposition Yposition Zposition Zrotation Xrotation Yrotation
            End Site
            {
              OFFSET -2.03487e-006 -9.50367 -4.31372e-006
            }
          }
        }
      }
    }
  }
  JOINT LeftUpLeg
  {
    OFFSET 9 -3.38008e-006 -5.22996e-009
    CHANNELS 6 Xposition Yposition Zposition Zrotation Xrotation Yrotation
    JOINT LeftLowLeg
    {
      OFFSET -0.575 -51.431 3.90177
      CHANNELS 6 Xposition Yposition Zposition Zrotation Xrotation Yrotation
      JOINT LeftFoot
      {
        OFFSET 2.13082e-007 -43.5882 -3.90177
        CHANNELS 6 Xposition Yposition Zposition Zrotation Xrotation Yrotation
        End Site
        {
          OFFSET 7.44796e-007 -6.93413 15.0046
        }
      }
    }
  }
  JOINT RightUpLeg
  {
    OFFSET -9 6.86154e-007 -3.19539e-009
    CHANNELS 6 Xposition Yposition Zposition Zrotation Xrotation Yrotation
    JOINT RightLowLeg
    {
      OFFSET 0.575 -51.4311 3.90177
      CHANNELS 6 Xposition Yposition Zposition Zrotation Xrotation Yrotation
      JOINT RightFoot
      {
        OFFSET -7.46079e-007 -43.5882 -3.90177
        CHANNELS 6 Xposition Yposition Zposition Zrotation Xrotation Yrotation
        End Site
        {
          OFFSET 4.66716e-007 -6.93413 15.0046
        }
      }
    }
  }
}
MOTION
Frames:	11
Frame Time:	0.0333333
52.9541 94.9696 -19.0073 -2.99582 -1.60721 -41.6092 1.23234e-007 14.8421 1.27319e-009 3.23268 -0.671575 6.45615 0.51659 29.8236 6.51843 8.21038 -3.61142 6.15078 1.16803e-007 7.47049 6.44171e-007 -4.30075 -3.58693 9.49381 6.64893 27.3161 3.27471 -2.94784 5.93879 -4.20517 10.8584 2.41798 -0.945791 32.7058 -34.2954 36.8589 3.77631 -24.5904 -1.70468 -1.3862 -68.1607 -6.57331 1.01026 -21.1231 1.74131 13.9871 13.1309 0.635547 -6.11406 27.2248 4.23427 -1.96452 7.32629 3.42623 -10.4566 2.3285 -0.910794 8.29175 -36.0379 37.8357 -3.86856 -25.191 -1.74633 2.55078 -77.3124 26.3718 -1.04759 -20.6242 1.75213 24.0794 7.71184 1.02119 9 -3.38008e-006 -5.23117e-009 20.3017 -26.2351 17.9111 -0.575 -51.431 3.90177 -4.46679 38.0257 -16.9315 2.13082e-007 -43.5882 -3.90177 -9.89123 4.0415 1.35063 -9 6.86154e-007 -3.19513e-009 -6.79888 -0.783915 -17.3564 0.575 -51.4311 3.90177 2.53571 27.6269 -7.80459 -7.46079e-007 -43.5882 -3.90177 -9.61736 -16.3201 -0.280883 
53.0354 96.0336 -17.6619 -1.40755 -2.16629 -41.1927 1.23234e-007 14.8421 1.27319e-009 1.40174 -2.65171 8.21166 0.51659 29.8236 6.51843 8.40115 -3.45365 4.82176 1.16803e-007 7.47049 6.44171e-007 -4.52638 -2.12793 8.36363 6.64893 27.3161 3.27471 -2.94784 5.93879 -4.20517 10.8584 2.41798 -0.945791 30.7714 -35.5272 31.6639 3.77631 -24.5904 -1.70468 -1.08316 -67.6641 -3.92924 1.01026 -21.1231 1.74131 17.3716 11.3535 0.811099 -6.11406 27.2248 4.23427 -1.96452 7.32629 3.42623 -10.4566 2.3285 -0.910794 6.43638 -32.6883 35.5751 -3.86856 -25.191 -1.74633 11.738 -77.9491 27.8082 -1.04759 -20.6242 1.75213 18.2255 7.95396 0.631629 9 -3.38008e-006 -5.23113e-009 18.555 -26.026 16.7182 -0.575 -51.431 3.90177 -5.0776 35.267 -17.7401 2.13082e-007 -43.5882 -3.90177 -9.31473 3.92688 1.26263 -9 6.86154e-007 -3.19514e-009 -8.53101 0.167534 -17.4316 0.575 -51.4311 3.90177 2.40231 25.2579 -6.55147 -7.46079e-007 -43.5882 -3.90177 -7.95107 -12.9789 -0.00343162 
53.0193 96.5707 -16.3769 -0.56028 -2.26189 -40.9723 1.23234e-007 14.8421 1.27319e-009 0.703943 -4.18166 9.07225 0.51659 29.8236 6.51843 7.92688 -3.67147 4.27648 1.16803e-007 7.47049 6.44171e-007 -4.49672 -0.4757 7.71975 6.64893 27.3161 3.27471 -2.94784 5.93879 -4.20517 10.8584 2.41798 -0.945791 30.271 -35.6124 29.1954 3.77631 -24.5904 -1.70468 -1.53594 -68.3411 -4.84816 1.01026 -21.1231 1.74131 16.4578 11.2819 0.802166 -6.11406 27.2248 4.23427 -1.96452 7.32629 3.42623 -10.4566 2.3285 -0.910794 5.12088 -31.7131 36.5818 -3.86856 -25.191 -1.74633 11.2526 -78.6359 30.7921 -1.04759 -20.6242 1.75213 12.6398 8.50605 0.212113 9 -3.38008e-006 -5.23108e-009 18.3603 -25.8482 16.4926 -0.575 -51.431 3.90177 -5.29664 31.9818 -16.2306 2.13082e-007 -43.5882 -3.90177 -9.30216 4.3409 1.29636 -9 6.86154e-007 -3.19516e-009 -9.20559 0.771685 -16.8627 0.575 -51.4311 3.90177 1.75642 23.9161 -5.51973 -7.46079e-007 -43.5882 -3.90177 -6.74604 -10.6525 0.134851 
52.9757 96.4936 -15.1175 -0.418002 -2.39241 -40.7171 1.23234e-007 14.8421 1.27319e-009 0.907945 -4.96282 9.24187 0.51659 29.8236 6.51843 7.04959 -4.07996 4.16686 1.16803e-007 7.47049 6.44171e-007 -4.41244 0.969158 7.34256 6.64893 27.3161 3.27471 -2.94784 5.93879 -4.20517 10.8584 2.41798 -0.945791 30.2224 -35.6779 28.0315 3.77631 -24.5904 -1.70468 -0.0770747 -68.9741 -5.28867 1.01026 -21.1231 1.74131 15.5048 13.1164 0.637646 -6.11406 27.2248 4.23427 -1.96452 7.32629 3.42623 -10.4566 2.3285 -0.910794 4.50645 -32.7738 38.8516 -3.86856 -25.191 -1.74633 3.17991 -78.3045 31.0102 -1.04759 -20.6242 1.75213 9.9727 7.38709 0.262596 9 -3.38008e-006 -5.23104e-009 18.7986 -25.4586 16.4308 -0.575 -51.431 3.90177 -5.29913 29.2885 -17.1971 2.13082e-007 -43.5882 -3.90177 -9.44983 4.71141 1.34901 -9 6.86154e-007 -3.19518e-009 -9.76494 1.62962 -17.027 0.575 -51.4311 3.90177 1.66771 23.4349 -5.47821 -7.46079e-007 -43.5882 -3.90177 -6.89523 -10.8126 0.1228 
52.8815 95.814 -13.8012 -1.04803 -2.46032 -39.9462 1.23234e-007 14.8421 1.27319e-009 1.83121 -4.89738 8.92368 0.51659 29.8236 6.51843 6.47878 -4.99106 4.14868 1.16803e-007 7.47049 6.44171e-007 -4.52432 1.78171 7.13009 6.64893 27.3161 3.27471 -2.94784 5.93879 -4.20517 10.8584 2.41798 -0.945791 29.9705 -36.8063 26.5419 3.77631 -24.5904 -1.70468 1.38893 -69.235 -2.41828 1.01026 -21.1231 1.74131 14.8034 14.106 0.566228 -6.11406 27.2248 4.23427 -1.96452 7.32629 3.42623 -10.4566 2.3285 -0.910794 4.23582 -34.6476 40.6575 -3.86856 -25.191 -1.74633 -2.14513 -76.6669 26.5463 -1.04759 -20.6242 1.75213 11.1893 5.7833 0.597707 9 -3.38008e-006 -5.23099e-009 19.7692 -25.1834 16.7966 -0.575 -51.431 3.90177 -5.45371 27.9858 -21.5424 2.13082e-007 -43.5882 -3.90177 -10.253 5.0832 1.497 -9 6.86154e-007 -3.1952e-009 -9.87873 2.64387 -17.4576 0.575 -51.4311 3.90177 1.77084 24.1959 -6.10955 -7.46079e-007 -43.5882 -3.90177 -7.54512 -12.1417 0.0517893 
52.7649 94.6966 -12.2196 -2.14088 -2.74156 -38.4587 1.23234e-007 14.8421 1.27319e-009 3.10461 -4.07304 7.93307 0.51659 29.8236 6.51843 6.07128 -6.08628 4.1372 1.16803e-007 7.47049 6.44171e-007 -4.80696 1.99941 6.98141 6.64893 27.3161 3.27471 -2.94784 5.93879 -4.20517 10.8584 2.41798 -0.945791 29.9627 -38.9558 25.8754 3.77631 -24.5904 -1.70468 3.42114 -69.1429 0.88549 1.01026 -21.1231 1.74131 13.5692 15.4491 0.482055 -6.11406 27.2248 4.23427 -1.96452 7.32629 3.42623 -10.4566 2.3285 -0.910794 4.78311 -37.5196 41.7321 -3.86856 -25.191 -1.74633 -5.2184 -74.1808 21.909 -1.04759 -20.6242 1.75213 16.3661 6.03698 0.933633 9 -3.38008e-006 -5.23095e-009 20.5038 -25.1093 17.2912 -0.575 -51.431 3.90177 -5.72143 27.9747 -25.2402 2.13082e-007 -43.5882 -3.90177 -11.2185 5.37857 1.66593 -9 6.86154e-007 -3.19522e-009 -9.55749 3.70102 -17.3703 0.575 -51.4311 3.90177 1.04386 26.3954 -7.10876 -7.46079e-007 -43.5882 -3.90177 -7.78279 -13.1491 -0.00843222 
52.6574 93.3818 -10.1651 -3.43863 -3.44691 -36.1654 1.23234e-007 14.8421 1.27319e-009 4.03365 -2.9878 5.87985 0.51659 29.8236 6.51843 6.08778 -6.95846 3.98089 1.16803e-007 7.47049 6.44171e-007 -4.68598 1.98006 6.75208 6.64893 27.3161 3.27471 -2.94784 5.93879 -4.20517 10.8584 2.41798 -0.945791 30.6268 -41.5105 25.8812 3.77631 -24.5904 -1.70468 4.9701 -69.4291 2.48726 1.01026 -21.1231 1.74131 11.1933 15.2962 0.523706 -6.11406 27.2248 4.23427 -1.96452 7.32629 3.42623 -10.4566 2.3285 -0.910794 5.97855 -40.2468 41.8867 -3.86856 -25.191 -1.74633 -7.22859 -71.4628 21.1662 -1.04759 -20.6242 1.75213 21.4072 6.15289 1.26711 9 -3.38008e-006 -5.2309e-009 20.3839 -24.8682 17.5537 -0.575 -51.431 3.90177 -6.04865 28.295 -24.9058 2.13082e-007 -43.5882 -3.90177 -11.8528 5.60547 1.78275 -9 6.86154e-007 -3.19524e-009 -9.65702 5.79295 -18.2121 0.575 -51.4311 3.90177 1.05471 28.3236 -9.18204 -7.46079e-007 -43.5882 -3.90177 -8.14682 -14.4031 -0.089145 
52.5621 92.3722 -7.83098 -4.20735 -3.45489 -33.7647 1.23234e-007 14.8421 1.27319e-009 5.23439 -3.51058 3.79601 0.51659 29.8236 6.51843 5.86813 -6.68904 3.68592 1.16803e-007 7.47049 6.44171e-007 -4.41269 1.66591 6.3696 6.64893 27.3161 3.27471 -2.94784 5.93879 -4.20517 10.8584 2.41798 -0.945791 30.4515 -43.9045 24.9208 3.77631 -24.5904 -1.70468 7.82616 -69.2529 4.07132 1.01026 -21.1231 1.74131 9.99629 16.6898 0.49327 -6.11406 27.2248 4.23427 -1.96452 7.32629 3.42623 -10.4566 2.3285 -0.910794 7.24547 -41.4932 41.7278 -3.86856 -25.191 -1.74633 -8.73923 -69.4422 21.1385 -1.04759 -20.6242 1.75213 23.2973 7.23556 1.11297 9 -3.38008e-006 -5.23085e-009 20.0441 -25.3177 17.8296 -0.575 -51.431 3.90177 -6.37814 28.9521 -22.2149 2.13082e-007 -43.5882 -3.90177 -11.4963 5.43668 1.72419 -9 6.86154e-007 -3.19527e-009 -9.26928 7.50117 -18.2908 0.575 -51.4311 3.90177 0.734366 29.2143 -11.2485 -7.46079e-007 -43.5882 -3.90177 -7.66708 -14.4171 -0.0737481 
52.6091 92.0178 -5.38495 -3.87625 -3.23744 -32.5702 1.23234e-007 14.8421 1.27319e-009 5.9626 -4.94887 3.45391 0.51659 29.8236 6.51843 5.06891 -6.58435 3.16864 1.16803e-007 7.47049 6.44171e-007 -4.05565 1.73703 5.60085 6.64893 27.3161 3.27471 -2.94784 5.93879 -4.20517 10.8584 2.41798 -0.945791 28.4475 -46.2022 22.8071 3.77631 -24.5904 -1.70468 11.4551 -66.901 5.764 1.01026 -21.1231 1.74131 11.3436 14.9935 0.528494 -6.11406 27.2248 4.23427 -1.96452 7.32629 3.42623 -10.4566 2.3285 -0.910794 8.03417 -40.9874 41.0061 -3.86856 -25.191 -1.74633 -9.34584 -68.8766 20.8509 -1.04759 -20.6242 1.75213 21.1133 8.48472 0.65187 9 -3.38008e-006 -5.2308e-009 19.5513 -26.6883 18.1474 -0.575 -51.431 3.90177 -6.73197 33.3917 -24.6909 2.13082e-007 -43.5882 -3.90177 -8.09369 3.4521 1.05835 -9 6.86154e-007 -3.1953e-009 -9.52498 8.10416 -17.7812 0.575 -51.4311 3.90177 -0.279385 29.6938 -12.1582 -7.46079e-007 -43.5882 -3.90177 -5.80232 -12.3309 0.071414 
52.9414 92.8761 -2.89926 -2.46521 -3.62989 -33.544 1.23234e-007 14.8421 1.27319e-009 5.08832 -5.52002 5.3507 0.51659 29.8236 6.51843 4.38639 -7.93413 2.81579 1.16803e-007 7.47049 6.44171e-007 -3.4828 2.5916 4.90998 6.64893 27.3161 3.27471 -2.94784 5.93879 -4.20517 10.8584 2.41798 -0.945791 25.7591 -46.7389 20.6017 3.77631 -24.5904 -1.70468 11.4782 -65.1857 3.88654 1.01026 -21.1231 1.74131 13.2752 12.1829 0.671856 -6.11406 27.2248 4.23427 -1.96452 7.32629 3.42623 -10.4566 2.3285 -0.910794 8.05219 -38.8804 38.6685 -3.86856 -25.191 -1.74633 -6.30618 -70.3629 23.7191 -1.04759 -20.6242 1.75213 16.5937 8.89191 0.325802 9 -3.38008e-006 -5.23076e-009 17.0515 -25.4956 16.848 -0.575 -51.431 3.90177 -7.11567 32.7661 -21.848 2.13082e-007 -43.5882 -3.90177 -7.4702 3.25332 0.96892 -9 6.86154e-007 -3.19532e-009 -11.9565 8.15104 -18.1862 0.575 -51.4311 3.90177 -0.786756 29.4494 -10.0685 -7.46079e-007 -43.5882 -3.90177 -3.88708 -8.35459 0.188909 
53.4131 94.4863 -0.893129 -1.43918 -2.96469 -36.6406 1.23234e-007 14.8421 1.27319e-009 4.25244 -7.05474 8.80683 0.51659 29.8236 6.51843 5.84183 -8.24481 2.37595 1.16803e-007 7.47049 6.44171e-007 -4.19725 3.80467 5.04335 6.64893 27.3161 3.27471 -2.94784 5.93879 -4.20517 10.8584 2.41798 -0.945791 22.015 -45.3046 17.2939 3.77631 -24.5904 -1.70468 10.103 -64.1109 -0.230798 1.01026 -21.1231 1.74131 17.3718 10.1425 0.925135 -6.11406 27.2248 4.23427 -1.96452 7.32629 3.42623 -10.4566 2.3285 -0.910794 7.5706 -35.2047 35.569 -3.86856 -25.191 -1.74633 -2.20471 -71.9043 28.6108 -1.04759 -20.6242 1.75213 9.07324 8.25766 0.0824967 9 -3.38008e-006 -5.23071e-009 15.3532 -23.1495 15.4972 -0.575 -51.431 3.90177 -6.97193 28.9372 -17.4095 2.13082e-007 -43.5882 -3.90177 -6.84922 3.33337 0.894979 -9 6.86154e-007 -3.19535e-009 -13.4437 5.68476 -18.2264 0.575 -51.4311 3.90177 -1.91941 30.1106 -8.67042 -7.46079e-007 -43.5882 -3.90177 -1.46994 -3.29119 0.118077 
